<svg xmlns="http://www.w3.org/2000/svg" viewBox="0 0 24 24" fill="none">
  <rect width="24" height="24" rx="12" fill="#FF7A45"></rect>
  <path fill="#1E1E1E" d="M12 5a7 7 0 0 0-2.2 13.7c.3.1.4-.1.4-.3v-1.2c-1.7.4-2.1-.7-2.1-.7-.3-.7-.7-.9-.7-.9-.6-.4 0-.4 0-.4.6 0 .9.6.9.6.6 1 .1 1.5 1.3 1.5.1-.4.3-.7.5-.9-1.4-.2-2.9-.7-2.9-3.2 0-.7.2-1.2.6-1.7 0-.2-.3-.8.1-1.6 0 0 .5-.2 1.7.6a6 6 0 0 1 3 0c1.2-.8 1.7-.6 1.7-.6.4.8.1 1.4.1 1.6.4.5.6 1 .6 1.7 0 2.5-1.5 3-2.9 3.2.3.3.5.7.5 1.4v2c0 .2.1.4.4.3A7 7 0 0 0 12 5z"></path>
</svg>
